<svg xmlns="http://www.w3.org/2000/svg" width="1280" height="328" viewBox="0 0 1280 328" role="img"><rect width="100%" height="100%" fill="#fbfcff"/><rect x="32" y="28" width="1216" height="272" rx="28" fill="#e8f0ff"/><text x="70" y="66" font-family="Inter, Arial, sans-serif" font-size="26" font-weight="700" fill="#162034">Seasonal demand patterns</text><text x="70" y="92" font-family="Inter, Arial, sans-serif" font-size="15" fill="#5b6475">Reconstructed from README and blueprint evidence</text><rect x="70" y="110" width="220" height="70" rx="18" fill="white" stroke="#d9e2f2" stroke-width="2"/><text x="88" y="142" font-family="Inter, Arial, sans-serif" font-size="20" font-weight="700" fill="#162034">Inputs</text><text x="88" y="166" font-family="Inter, Arial, sans-serif" font-size="14" fill="#5b6475">Inbound API requests and job metadata</text><line x1="302" y1="145" x2="318" y2="145" stroke="#1d4ed8" stroke-width="4"/><polygon points="318,145 308,139 308,151" fill="#1d4ed8"/><rect x="320" y="110" width="220" height="70" rx="18" fill="white" stroke="#d9e2f2" stroke-width="2"/><text x="338" y="142" font-family="Inter, Arial, sans-serif" font-size="20" font-weight="700" fill="#162034">Decision Layer</text><text x="338" y="166" font-family="Inter, Arial, sans-serif" font-size="14" fill="#5b6475">Seasonal demand patterns</text><line x1="552" y1="145" x2="568" y2="145" stroke="#1d4ed8" stroke-width="4"/><polygon points="568,145 558,139 558,151" fill="#1d4ed8"/><rect x="570" y="110" width="220" height="70" rx="18" fill="white" stroke="#d9e2f2" stroke-width="2"/><text x="588" y="142" font-family="Inter, Arial, sans-serif" font-size="20" font-weight="700" fill="#162034">User Surface</text><text x="588" y="166" font-family="Inter, Arial, sans-serif" font-size="14" fill="#5b6475">API-facing integration surface described in th</text><line x1="802" y1="145" x2="818" y2="145" stroke="#1d4ed8" stroke-width="4"/><polygon points="818,145 808,139 808,151" fill="#1d4ed8"/><rect x="820" y="110" width="220" height="70" rx="18" fill="white" stroke="#d9e2f2" stroke-width="2"/><text x="838" y="142" font-family="Inter, Arial, sans-serif" font-size="20" font-weight="700" fill="#162034">Business Outcome</text><text x="838" y="166" font-family="Inter, Arial, sans-serif" font-size="14" fill="#5b6475">measurable KPI exports are not checked in, so </text></svg>